<svg version="1.2" xmlns="http://www.w3.org/2000/svg" viewBox="0 0 128 128" width="128" height="128">
	<title>zllogo</title>
	<style>
		.s0 { fill: #fbfbfb } 
	</style>
	<g>
		<path class="s0" d="m58 18.7c-16.5 3.2-28.6 12.1-35.1 25.8-4.9 10.4-6 19.9-3.4 30 2.5 9.5 5.4 14.5 12.4 21.6 11.9 11.9 27.2 16.4 42.4 12.4 32.1-8.4 45.6-45 26.3-71.3-5.3-7.2-12.8-12.8-21.2-15.8-6.3-2.3-16.7-3.7-21.4-2.7zm14.9 4.8c8.7 2.1 15.1 5.8 21.2 12.2 6.1 6.4 9.4 13.4 11.1 23.1 1.1 6.3 1 8-0.6 13.9-0.9 3.7-2.7 8.4-3.8 10.6-2.7 5.4-10.3 13.3-15.6 16.5-5.3 3.1-16.2 6.2-21.6 6.2-5 0-17.2-3.6-21.1-6.3-4.7-3.2-11.5-9.9-14-13.8-3-4.7-6.5-16.5-6.5-22.1 0-9.4 4.6-20.3 11.8-28 5.8-6.2 11.9-9.8 20.2-12 8.1-2.1 10.9-2.2 18.9-0.3z"/>
		<path class="s0" d="m45.5 49.1c-1 3-0.1 3.4 7.1 3 3.5-0.1 6.4 0 6.4 0.4 0 0.3-2.8 3.8-6.3 7.8-17.7 20.4-17.6 20.2-1.7 20.2h11.5l0.3-2.9 0.4-2.8-8.1 0.7c-4.5 0.4-8.1 0.5-8.1 0.1 0-0.3 0.8-1.3 1.8-2.3 3.5-3.4 16.9-19.8 18.1-22.1 0.7-1.2 0.9-2.7 0.6-3.2-0.3-0.6-5.3-1-11-1-9.6 0-10.4 0.2-11 2.1z"/>
		<path class="s0" d="m74.5 48.2c-0.2 0.7-1.1 6-2 11.8-0.9 5.8-1.9 11.9-2.2 13.5-0.3 2.3 0.1 3.5 2 5.3 2.1 2 3.3 2.3 9.3 2 6.3-0.3 6.9-0.5 7.2-2.6 0.3-2.1 0-2.2-5.7-2.2-4.2 0-6.1-0.4-6.2-1.3-0.2-2.7 0.3-7.5 1.6-13.7 3-14.2 3-14-0.5-14-1.7 0-3.3 0.6-3.5 1.2z"/>
	</g>
</svg>